<mxfile host="65bd71144e">
    <diagram id="lrpJYUM9OQKFdtNW1zxQ" name="Page-1">
        <mxGraphModel dx="1208" dy="862" grid="1" gridSize="10" guides="1" tooltips="1" connect="1" arrows="1" fold="1" page="1" pageScale="1" pageWidth="850" pageHeight="1100" math="0" shadow="0">
            <root>
                <mxCell id="0"/>
                <mxCell id="1" parent="0"/>
                <mxCell id="bqG94RJb7h305sRFG-q4-37" style="edgeStyle=orthogonalEdgeStyle;rounded=0;orthogonalLoop=1;jettySize=auto;html=1;entryX=0.5;entryY=0;entryDx=0;entryDy=0;endArrow=none;endFill=0;" parent="1" source="bqG94RJb7h305sRFG-q4-29" target="bqG94RJb7h305sRFG-q4-36" edge="1">
                    <mxGeometry relative="1" as="geometry"/>
                </mxCell>
                <mxCell id="bqG94RJb7h305sRFG-q4-29" value="REGISTERED_USER" style="html=1;" parent="1" vertex="1">
                    <mxGeometry x="1340" y="160" width="140" height="50" as="geometry"/>
                </mxCell>
                <mxCell id="bqG94RJb7h305sRFG-q4-64" style="edgeStyle=none;rounded=0;orthogonalLoop=1;jettySize=auto;html=1;entryX=0.5;entryY=0;entryDx=0;entryDy=0;endArrow=none;endFill=0;shape=link;" parent="1" source="bqG94RJb7h305sRFG-q4-30" target="bqG94RJb7h305sRFG-q4-63" edge="1">
                    <mxGeometry relative="1" as="geometry"/>
                </mxCell>
                <mxCell id="32" style="edgeStyle=none;html=1;entryX=0.5;entryY=0;entryDx=0;entryDy=0;endArrow=none;endFill=0;shape=link;" edge="1" parent="1" source="bqG94RJb7h305sRFG-q4-30" target="31">
                    <mxGeometry relative="1" as="geometry"/>
                </mxCell>
                <mxCell id="bqG94RJb7h305sRFG-q4-30" value="TICKET" style="html=1;" parent="1" vertex="1">
                    <mxGeometry x="1355" y="320" width="110" height="50" as="geometry"/>
                </mxCell>
                <mxCell id="bqG94RJb7h305sRFG-q4-38" style="edgeStyle=orthogonalEdgeStyle;rounded=0;orthogonalLoop=1;jettySize=auto;html=1;entryX=0.5;entryY=0;entryDx=0;entryDy=0;endArrow=none;endFill=0;" parent="1" source="bqG94RJb7h305sRFG-q4-36" target="bqG94RJb7h305sRFG-q4-30" edge="1">
                    <mxGeometry relative="1" as="geometry"/>
                </mxCell>
                <mxCell id="bqG94RJb7h305sRFG-q4-36" value="PURCHASES" style="shape=rhombus;perimeter=rhombusPerimeter;whiteSpace=wrap;html=1;align=center;" parent="1" vertex="1">
                    <mxGeometry x="1350" y="230" width="120" height="60" as="geometry"/>
                </mxCell>
                <mxCell id="bqG94RJb7h305sRFG-q4-49" value="MOVIE" style="html=1;" parent="1" vertex="1">
                    <mxGeometry x="900" y="580" width="110" height="40" as="geometry"/>
                </mxCell>
                <mxCell id="bqG94RJb7h305sRFG-q4-50" value="THEATRE" style="html=1;" parent="1" vertex="1">
                    <mxGeometry x="900" y="430" width="110" height="50" as="geometry"/>
                </mxCell>
                <mxCell id="bqG94RJb7h305sRFG-q4-51" style="edgeStyle=orthogonalEdgeStyle;rounded=0;orthogonalLoop=1;jettySize=auto;html=1;entryX=1;entryY=0.5;entryDx=0;entryDy=0;endArrow=none;endFill=0;exitX=0;exitY=0.5;exitDx=0;exitDy=0;" parent="1" source="bqG94RJb7h305sRFG-q4-79" target="bqG94RJb7h305sRFG-q4-49" edge="1">
                    <mxGeometry relative="1" as="geometry">
                        <mxPoint x="1469.9999999999995" y="610.0000000000002" as="sourcePoint"/>
                    </mxGeometry>
                </mxCell>
                <mxCell id="bqG94RJb7h305sRFG-q4-52" style="edgeStyle=orthogonalEdgeStyle;rounded=0;orthogonalLoop=1;jettySize=auto;html=1;entryX=1;entryY=0.5;entryDx=0;entryDy=0;endArrow=none;endFill=0;exitX=0;exitY=0.5;exitDx=0;exitDy=0;" parent="1" source="bqG94RJb7h305sRFG-q4-79" target="bqG94RJb7h305sRFG-q4-50" edge="1">
                    <mxGeometry relative="1" as="geometry">
                        <mxPoint x="1350.0000000000005" y="610.0000000000002" as="sourcePoint"/>
                    </mxGeometry>
                </mxCell>
                <mxCell id="bqG94RJb7h305sRFG-q4-78" style="edgeStyle=none;rounded=0;orthogonalLoop=1;jettySize=auto;html=1;entryX=1;entryY=0;entryDx=0;entryDy=0;endArrow=none;endFill=0;exitX=0;exitY=1;exitDx=0;exitDy=0;" parent="1" source="bqG94RJb7h305sRFG-q4-82" target="20" edge="1">
                    <mxGeometry relative="1" as="geometry">
                        <mxPoint x="1410" y="640" as="sourcePoint"/>
                        <mxPoint x="1310" y="600" as="targetPoint"/>
                    </mxGeometry>
                </mxCell>
                <mxCell id="bqG94RJb7h305sRFG-q4-59" style="edgeStyle=none;rounded=0;orthogonalLoop=1;jettySize=auto;html=1;endArrow=none;endFill=0;entryX=1;entryY=0.5;entryDx=0;entryDy=0;exitX=0;exitY=0.5;exitDx=0;exitDy=0;shape=link;" parent="1" source="bqG94RJb7h305sRFG-q4-82" target="bqG94RJb7h305sRFG-q4-79" edge="1">
                    <mxGeometry relative="1" as="geometry">
                        <mxPoint x="1410" y="549.9999999999999" as="sourcePoint"/>
                        <mxPoint x="1410" y="590" as="targetPoint"/>
                    </mxGeometry>
                </mxCell>
                <mxCell id="bqG94RJb7h305sRFG-q4-65" style="edgeStyle=none;rounded=0;orthogonalLoop=1;jettySize=auto;html=1;entryX=0.5;entryY=0;entryDx=0;entryDy=0;endArrow=none;endFill=0;" parent="1" source="bqG94RJb7h305sRFG-q4-63" target="bqG94RJb7h305sRFG-q4-82" edge="1">
                    <mxGeometry relative="1" as="geometry">
                        <mxPoint x="1410" y="509.9999999999999" as="targetPoint"/>
                    </mxGeometry>
                </mxCell>
                <mxCell id="bqG94RJb7h305sRFG-q4-63" value="ENTRY_TO" style="shape=rhombus;perimeter=rhombusPerimeter;whiteSpace=wrap;html=1;align=center;" parent="1" vertex="1">
                    <mxGeometry x="1350" y="400" width="120" height="60" as="geometry"/>
                </mxCell>
                <mxCell id="bqG94RJb7h305sRFG-q4-69" style="edgeStyle=none;rounded=0;orthogonalLoop=1;jettySize=auto;html=1;entryX=0;entryY=1;entryDx=0;entryDy=0;endArrow=none;endFill=0;" parent="1" source="bqG94RJb7h305sRFG-q4-68" target="bqG94RJb7h305sRFG-q4-30" edge="1">
                    <mxGeometry relative="1" as="geometry"/>
                </mxCell>
                <mxCell id="bqG94RJb7h305sRFG-q4-68" value="time" style="ellipse;whiteSpace=wrap;html=1;align=center;" parent="1" vertex="1">
                    <mxGeometry x="1200" y="380" width="100" height="40" as="geometry"/>
                </mxCell>
                <mxCell id="bqG94RJb7h305sRFG-q4-70" value="1" style="text;html=1;align=center;verticalAlign=middle;resizable=0;points=[];autosize=1;strokeColor=none;fillColor=none;" parent="1" vertex="1">
                    <mxGeometry x="1415" y="215" width="30" height="30" as="geometry"/>
                </mxCell>
                <mxCell id="bqG94RJb7h305sRFG-q4-71" value="N" style="text;html=1;align=center;verticalAlign=middle;resizable=0;points=[];autosize=1;strokeColor=none;fillColor=none;" parent="1" vertex="1">
                    <mxGeometry x="1415" y="285" width="30" height="30" as="geometry"/>
                </mxCell>
                <mxCell id="bqG94RJb7h305sRFG-q4-72" value="1" style="text;html=1;align=center;verticalAlign=middle;resizable=0;points=[];autosize=1;strokeColor=none;fillColor=none;" parent="1" vertex="1">
                    <mxGeometry x="1415" y="380" width="30" height="30" as="geometry"/>
                </mxCell>
                <mxCell id="bqG94RJb7h305sRFG-q4-73" value="1" style="text;html=1;align=center;verticalAlign=middle;resizable=0;points=[];autosize=1;strokeColor=none;fillColor=none;" parent="1" vertex="1">
                    <mxGeometry x="1415" y="450" width="30" height="30" as="geometry"/>
                </mxCell>
                <mxCell id="bqG94RJb7h305sRFG-q4-74" value="N" style="text;html=1;align=center;verticalAlign=middle;resizable=0;points=[];autosize=1;strokeColor=none;fillColor=none;" parent="1" vertex="1">
                    <mxGeometry x="1220" y="500" width="30" height="30" as="geometry"/>
                </mxCell>
                <mxCell id="bqG94RJb7h305sRFG-q4-75" value="1" style="text;html=1;align=center;verticalAlign=middle;resizable=0;points=[];autosize=1;strokeColor=none;fillColor=none;" parent="1" vertex="1">
                    <mxGeometry x="1090" y="540" width="30" height="30" as="geometry"/>
                </mxCell>
                <mxCell id="bqG94RJb7h305sRFG-q4-76" value="1" style="text;html=1;align=center;verticalAlign=middle;resizable=0;points=[];autosize=1;strokeColor=none;fillColor=none;" parent="1" vertex="1">
                    <mxGeometry x="1090" y="500" width="30" height="30" as="geometry"/>
                </mxCell>
                <mxCell id="bqG94RJb7h305sRFG-q4-79" value="DETAILS" style="shape=rhombus;double=1;perimeter=rhombusPerimeter;whiteSpace=wrap;html=1;align=center;" parent="1" vertex="1">
                    <mxGeometry x="1110" y="500" width="120" height="60" as="geometry"/>
                </mxCell>
                <mxCell id="bqG94RJb7h305sRFG-q4-82" value="SHOWING" style="shape=ext;margin=3;double=1;whiteSpace=wrap;html=1;align=center;" parent="1" vertex="1">
                    <mxGeometry x="1360" y="510" width="100" height="40" as="geometry"/>
                </mxCell>
                <mxCell id="bqG94RJb7h305sRFG-q4-85" style="edgeStyle=none;rounded=0;orthogonalLoop=1;jettySize=auto;html=1;entryX=1;entryY=0.5;entryDx=0;entryDy=0;endArrow=none;endFill=0;" parent="1" source="bqG94RJb7h305sRFG-q4-84" target="bqG94RJb7h305sRFG-q4-30" edge="1">
                    <mxGeometry relative="1" as="geometry"/>
                </mxCell>
                <mxCell id="bqG94RJb7h305sRFG-q4-84" value="&lt;u&gt;ticket_id&lt;/u&gt;" style="ellipse;whiteSpace=wrap;html=1;align=center;" parent="1" vertex="1">
                    <mxGeometry x="1520" y="290" width="100" height="40" as="geometry"/>
                </mxCell>
                <mxCell id="bqG94RJb7h305sRFG-q4-87" style="edgeStyle=none;rounded=0;orthogonalLoop=1;jettySize=auto;html=1;entryX=1;entryY=0;entryDx=0;entryDy=0;endArrow=none;endFill=0;" parent="1" source="bqG94RJb7h305sRFG-q4-86" target="bqG94RJb7h305sRFG-q4-29" edge="1">
                    <mxGeometry relative="1" as="geometry"/>
                </mxCell>
                <mxCell id="bqG94RJb7h305sRFG-q4-86" value="name" style="ellipse;whiteSpace=wrap;html=1;align=center;" parent="1" vertex="1">
                    <mxGeometry x="1500" y="110" width="100" height="40" as="geometry"/>
                </mxCell>
                <mxCell id="3" style="edgeStyle=none;html=1;entryX=0.5;entryY=0;entryDx=0;entryDy=0;endArrow=none;endFill=0;" parent="1" source="2" target="bqG94RJb7h305sRFG-q4-50" edge="1">
                    <mxGeometry relative="1" as="geometry"/>
                </mxCell>
                <mxCell id="2" value="&lt;u&gt;theatre_id&lt;/u&gt;" style="ellipse;whiteSpace=wrap;html=1;align=center;" parent="1" vertex="1">
                    <mxGeometry x="905" y="340" width="100" height="40" as="geometry"/>
                </mxCell>
                <mxCell id="5" style="edgeStyle=none;html=1;entryX=0.75;entryY=0;entryDx=0;entryDy=0;endArrow=none;endFill=0;" parent="1" source="4" target="bqG94RJb7h305sRFG-q4-50" edge="1">
                    <mxGeometry relative="1" as="geometry"/>
                </mxCell>
                <mxCell id="4" value="theatre_name" style="ellipse;whiteSpace=wrap;html=1;align=center;" parent="1" vertex="1">
                    <mxGeometry x="1010" y="350" width="100" height="40" as="geometry"/>
                </mxCell>
                <mxCell id="10" style="edgeStyle=none;html=1;entryX=0.75;entryY=1;entryDx=0;entryDy=0;endArrow=none;endFill=0;" parent="1" source="6" target="bqG94RJb7h305sRFG-q4-49" edge="1">
                    <mxGeometry relative="1" as="geometry"/>
                </mxCell>
                <mxCell id="6" value="movie_name" style="ellipse;whiteSpace=wrap;html=1;align=center;" parent="1" vertex="1">
                    <mxGeometry x="1030" y="680" width="100" height="40" as="geometry"/>
                </mxCell>
                <mxCell id="8" style="edgeStyle=none;html=1;entryX=0.5;entryY=1;entryDx=0;entryDy=0;endArrow=none;endFill=0;" parent="1" source="7" target="bqG94RJb7h305sRFG-q4-49" edge="1">
                    <mxGeometry relative="1" as="geometry"/>
                </mxCell>
                <mxCell id="7" value="&lt;u&gt;movie_id&lt;/u&gt;" style="ellipse;whiteSpace=wrap;html=1;align=center;" parent="1" vertex="1">
                    <mxGeometry x="905" y="680" width="100" height="40" as="geometry"/>
                </mxCell>
                <mxCell id="12" style="edgeStyle=none;html=1;entryX=0.5;entryY=0;entryDx=0;entryDy=0;endArrow=none;endFill=0;" parent="1" source="11" target="bqG94RJb7h305sRFG-q4-29" edge="1">
                    <mxGeometry relative="1" as="geometry"/>
                </mxCell>
                <mxCell id="11" value="&lt;u&gt;user_id&lt;/u&gt;" style="ellipse;whiteSpace=wrap;html=1;align=center;" parent="1" vertex="1">
                    <mxGeometry x="1360" y="80" width="100" height="40" as="geometry"/>
                </mxCell>
                <mxCell id="14" style="edgeStyle=none;html=1;entryX=1;entryY=0.75;entryDx=0;entryDy=0;endArrow=none;endFill=0;" parent="1" source="13" target="bqG94RJb7h305sRFG-q4-29" edge="1">
                    <mxGeometry relative="1" as="geometry"/>
                </mxCell>
                <mxCell id="13" value="address" style="ellipse;whiteSpace=wrap;html=1;align=center;" parent="1" vertex="1">
                    <mxGeometry x="1510" y="175" width="100" height="40" as="geometry"/>
                </mxCell>
                <mxCell id="19" style="edgeStyle=none;html=1;entryX=0;entryY=0;entryDx=0;entryDy=0;endArrow=none;endFill=0;" parent="1" source="15" target="bqG94RJb7h305sRFG-q4-29" edge="1">
                    <mxGeometry relative="1" as="geometry"/>
                </mxCell>
                <mxCell id="15" value="credit_credentials" style="ellipse;whiteSpace=wrap;html=1;align=center;" parent="1" vertex="1">
                    <mxGeometry x="1240" y="100" width="100" height="40" as="geometry"/>
                </mxCell>
                <mxCell id="18" style="edgeStyle=none;html=1;entryX=0;entryY=0.5;entryDx=0;entryDy=0;endArrow=none;endFill=0;" parent="1" source="17" target="bqG94RJb7h305sRFG-q4-29" edge="1">
                    <mxGeometry relative="1" as="geometry"/>
                </mxCell>
                <mxCell id="17" value="debit_credentials" style="ellipse;whiteSpace=wrap;html=1;align=center;" parent="1" vertex="1">
                    <mxGeometry x="1200" y="165" width="100" height="40" as="geometry"/>
                </mxCell>
                <mxCell id="20" value="&lt;span style=&quot;border-bottom: 1px dotted&quot;&gt;time&lt;/span&gt;" style="ellipse;whiteSpace=wrap;html=1;align=center;" parent="1" vertex="1">
                    <mxGeometry x="1210" y="590" width="100" height="40" as="geometry"/>
                </mxCell>
                <mxCell id="33" style="edgeStyle=none;html=1;entryX=0.5;entryY=1;entryDx=0;entryDy=0;endArrow=none;endFill=0;" edge="1" parent="1" source="21" target="31">
                    <mxGeometry relative="1" as="geometry"/>
                </mxCell>
                <mxCell id="21" value="SEATS" style="html=1;" vertex="1" parent="1">
                    <mxGeometry x="1355" y="720" width="110" height="50" as="geometry"/>
                </mxCell>
                <mxCell id="24" style="edgeStyle=none;html=1;entryX=0.5;entryY=0;entryDx=0;entryDy=0;endArrow=none;endFill=0;" edge="1" parent="1" source="22" target="21">
                    <mxGeometry relative="1" as="geometry"/>
                </mxCell>
                <mxCell id="22" value="BOOKS" style="shape=rhombus;perimeter=rhombusPerimeter;whiteSpace=wrap;html=1;align=center;" vertex="1" parent="1">
                    <mxGeometry x="1350" y="610" width="120" height="60" as="geometry"/>
                </mxCell>
                <mxCell id="23" style="edgeStyle=none;rounded=0;orthogonalLoop=1;jettySize=auto;html=1;entryX=0.5;entryY=1;entryDx=0;entryDy=0;endArrow=none;endFill=0;exitX=0.5;exitY=0;exitDx=0;exitDy=0;" edge="1" parent="1" source="22" target="bqG94RJb7h305sRFG-q4-82">
                    <mxGeometry relative="1" as="geometry">
                        <mxPoint x="1420" y="520" as="targetPoint"/>
                        <mxPoint x="1410" y="600" as="sourcePoint"/>
                    </mxGeometry>
                </mxCell>
                <mxCell id="26" style="edgeStyle=none;html=1;entryX=0;entryY=0.5;entryDx=0;entryDy=0;endArrow=none;endFill=0;" edge="1" parent="1" source="25" target="21">
                    <mxGeometry relative="1" as="geometry"/>
                </mxCell>
                <mxCell id="25" value="&lt;u&gt;seat_id&lt;/u&gt;" style="ellipse;whiteSpace=wrap;html=1;align=center;" vertex="1" parent="1">
                    <mxGeometry x="1220" y="725" width="100" height="40" as="geometry"/>
                </mxCell>
                <mxCell id="28" style="edgeStyle=none;html=1;entryX=0.5;entryY=1;entryDx=0;entryDy=0;endArrow=none;endFill=0;" edge="1" parent="1" source="27" target="21">
                    <mxGeometry relative="1" as="geometry"/>
                </mxCell>
                <mxCell id="27" value="booked" style="ellipse;whiteSpace=wrap;html=1;align=center;" vertex="1" parent="1">
                    <mxGeometry x="1360" y="810" width="100" height="40" as="geometry"/>
                </mxCell>
                <mxCell id="29" value="1" style="text;html=1;align=center;verticalAlign=middle;resizable=0;points=[];autosize=1;strokeColor=none;fillColor=none;" vertex="1" parent="1">
                    <mxGeometry x="1420" y="590" width="20" height="20" as="geometry"/>
                </mxCell>
                <mxCell id="30" value="N" style="text;html=1;align=center;verticalAlign=middle;resizable=0;points=[];autosize=1;strokeColor=none;fillColor=none;" vertex="1" parent="1">
                    <mxGeometry x="1420" y="670" width="20" height="20" as="geometry"/>
                </mxCell>
                <mxCell id="31" value="RESERVES" style="shape=rhombus;perimeter=rhombusPerimeter;whiteSpace=wrap;html=1;align=center;" vertex="1" parent="1">
                    <mxGeometry x="1510" y="500" width="120" height="60" as="geometry"/>
                </mxCell>
                <mxCell id="34" value="1" style="text;html=1;align=center;verticalAlign=middle;resizable=0;points=[];autosize=1;strokeColor=none;fillColor=none;" vertex="1" parent="1">
                    <mxGeometry x="1560" y="470" width="20" height="20" as="geometry"/>
                </mxCell>
                <mxCell id="35" value="1" style="text;html=1;align=center;verticalAlign=middle;resizable=0;points=[];autosize=1;strokeColor=none;fillColor=none;" vertex="1" parent="1">
                    <mxGeometry x="1560" y="580" width="20" height="20" as="geometry"/>
                </mxCell>
            </root>
        </mxGraphModel>
    </diagram>
</mxfile>